# 3ds Max Wavefront OBJ Exporter v0.97b - (c)2007 guruware
# File Created: 07.05.2017 12:13:15

mtllib Tree_001.mtl

#
# object Tree_001
#

v  20.505142 0.000000 12.094944
v  10.252570 17.757975 8.393528
v  8.611729 0.000000 28.911510
v  -10.252572 17.757975 12.094944
v  4.305863 7.457977 28.911510
v  -20.505140 -0.000001 8.393528
v  -4.305865 7.457977 28.911510
v  -10.252569 -17.757975 12.094944
v  -8.611731 -0.000001 28.911510
v  10.252569 -17.757975 8.393528
v  -4.305864 -7.457976 28.911510
v  4.305862 -7.457976 28.911510
v  15.415478 0.000000 28.306110
v  7.707738 13.350195 26.126545
v  5.302608 0.000000 43.640617
v  -7.707740 13.350195 30.022541
v  2.651303 4.592194 43.640617
v  -15.415476 -0.000001 26.126545
v  -2.651304 4.592193 43.640617
v  -7.707737 -13.350195 27.033298
v  -5.302608 -0.000000 43.640617
v  7.707737 -13.350195 27.842976
v  -2.651303 -4.592193 43.640617
v  2.651303 -4.592193 43.640617
v  9.055118 0.000000 42.207756
v  4.520818 7.841962 40.016304
v  3.567208 0.000000 54.111134
v  -4.527559 7.841962 42.207756
v  1.783604 3.089294 54.111134
v  -9.732700 -0.000002 40.016304
v  -1.783605 3.089294 54.111134
v  -5.468396 -7.841962 42.207756
v  -3.567208 0.000000 54.111134
v  4.527557 -7.841962 40.016304
v  -1.783604 -3.089293 54.111134
v  1.783604 -3.089293 54.111134
v  5.511810 0.000000 51.885681
v  2.755905 4.773369 53.289745
v  1.787004 0.402673 66.864410
v  -2.755906 4.773368 51.885681
v  0.915905 1.586394 66.216705
v  -5.511811 -0.000000 53.289745
v  -1.242227 1.346254 66.864410
v  -2.755905 -4.773367 51.885681
v  -1.831810 0.000000 66.216705
v  2.755905 -4.773367 53.289745
v  -0.544777 -1.748927 66.864410
v  0.915905 -1.586394 66.216705
v  2.770095 0.000000 15.455601
v  1.385048 2.398973 15.455601
v  -1.385047 2.398973 15.455601
v  -2.770095 -0.000000 15.455601
v  -1.385047 -2.398972 15.455601
v  1.385047 -2.398972 15.455601
v  5.802719 0.000000 0.000000
v  3.305254 5.194177 0.000000
v  -2.148166 3.720732 0.000000
v  -5.691325 -0.000000 0.000000
v  -2.692465 -5.194177 0.000000
v  2.148166 -3.720732 0.000000
# 60 vertices

vn 0.702645 0.509253 0.496941
vn 0.084197 0.880540 0.466433
vn -0.792349 0.353882 0.496941
vn -0.804669 -0.367354 0.466433
vn 0.089704 -0.863135 0.496941
vn 0.720472 -0.513187 0.466433
vn 0.724681 0.496420 0.477916
vn 0.119130 0.873853 0.471369
vn -0.804030 0.317496 0.502725
vn -0.784949 -0.422406 0.453241
vn -0.024803 -0.881130 0.472223
vn 0.748269 -0.448956 0.488398
vn 0.764167 0.540302 0.352310
vn 0.080526 0.939664 0.332486
vn -0.819385 0.441793 0.365278
vn -0.854657 -0.360272 0.373852
vn 0.076554 -0.933920 0.349189
vn 0.773533 -0.539521 0.332512
vn 0.872532 0.443441 0.205054
vn -0.058857 0.971160 0.231049
vn -0.820297 0.533915 0.205054
vn -0.811621 -0.536552 0.231049
vn -0.052235 -0.977356 0.205054
vn 0.870478 -0.434609 0.231049
vn -0.370073 -0.213662 -0.904099
vn 0.000000 0.185294 -0.982683
vn 0.370073 -0.213662 -0.904099
vn 0.263016 0.151853 -0.952766
vn 0.000000 0.178436 -0.983951
vn -0.088514 0.051104 -0.994763
vn -0.645298 -0.372563 -0.666923
vn 0.000000 -0.403437 -0.915007
vn 0.594710 -0.343356 -0.726929
vn 0.287929 0.166236 -0.943113
vn 0.000000 0.744530 -0.667589
vn -0.349387 0.201719 -0.915007
vn -0.379644 -0.219188 -0.898792
vn 0.000000 -0.797415 -0.603431
vn 0.379644 -0.219188 -0.898792
vn 0.690582 0.398708 -0.603431
vn 0.000000 0.438376 -0.898792
vn -0.690582 0.398708 -0.603431
vn 0.773977 0.446856 0.448642
vn 0.000000 0.852758 0.522307
vn -0.773977 0.446856 0.448642
vn -0.738510 -0.426379 0.522307
vn 0.000000 -0.893712 0.448642
vn 0.738510 -0.426379 0.522307
vn 0.774580 0.447204 0.447253
vn -0.000000 0.841079 0.540912
vn -0.774580 0.447204 0.447253
vn -0.766032 -0.442269 0.466468
vn 0.000000 -0.874591 0.484862
vn 0.752017 -0.434177 0.495944
vn 0.820732 0.473850 0.319165
vn 0.000000 0.928710 0.370807
vn -0.809862 0.467574 0.354257
vn -0.784460 -0.452908 0.423669
vn 0.000000 -0.947581 0.319517
vn 0.804286 -0.464355 0.370807
vn 0.702738 0.661052 0.263000
vn -0.040239 0.973129 0.226717
vn -0.923857 0.278063 0.263000
vn -0.822635 -0.521413 0.226717
vn 0.221119 -0.939115 0.263000
vn 0.862874 -0.451717 0.226717
vn -0.086672 -0.209065 -0.974053
vn -0.233589 -0.301986 -0.924251
vn 0.086636 0.232674 -0.968688
vn 0.374302 0.153995 -0.914431
vn 0.050402 0.276787 -0.959609
vn -0.125278 0.106548 -0.986384
vn -0.323172 -0.423376 -0.846353
vn -0.170783 -0.688178 -0.705155
vn 0.499902 -0.091127 -0.861275
vn 0.628079 0.126997 -0.767717
vn -0.182305 0.524674 -0.831554
vn -0.510518 0.491847 -0.705307
vn -0.732029 -0.234488 -0.639648
vn 0.210256 -0.523962 -0.825382
vn 0.569087 -0.516712 -0.639648
vn 0.348636 0.444068 -0.825382
vn 0.162942 0.751200 -0.639647
vn -0.558892 0.079894 -0.825383
vn -0.361787 -0.208878 -0.908559
vn 0.000000 -0.213750 -0.976888
vn 0.361787 -0.208878 -0.908559
vn 0.185113 0.106875 -0.976888
vn 0.000000 0.417756 -0.908559
vn -0.185113 0.106875 -0.976888
vn -0.177715 -0.298086 -0.937850
vn -0.167671 -0.330289 -0.928868
vn 0.347008 -0.004863 -0.937850
vn 0.369874 0.019937 -0.928868
vn -0.169293 0.302949 -0.937850
vn -0.202203 0.310352 -0.928868
vn 0.885340 0.425689 0.186982
vn -0.259654 0.961017 0.095006
vn -0.717487 0.683244 0.135611
vn -0.854652 -0.493434 0.161536
vn 0.289861 -0.952267 0.095750
vn 0.706534 -0.693967 0.138633
vn 0.000000 0.000000 -1.000000
vn 0.177452 0.569684 0.802478
vn -0.582087 -0.131164 0.802478
vn 0.404635 -0.438520 0.802478
vn 0.000000 0.000000 1.000000
vn 0.853786 0.492934 0.167526
vn 0.000000 0.984037 0.177967
vn -0.862876 0.498182 0.085209
vn 0.000000 -0.984037 0.177967
vn 0.862876 -0.498182 0.085209
# 112 vertex normals

vt 0.071858 0.196910 0.000000
vt 0.174380 0.046174 0.000000
vt 0.233513 0.276545 0.000000
vt 0.354602 0.018761 0.000000
vt 0.285114 0.221644 0.000000
vt 0.535441 0.041746 0.000000
vt 0.356963 0.198951 0.000000
vt 0.641633 0.189918 0.000000
vt 0.429303 0.220033 0.000000
vt 0.703189 0.361508 0.000000
vt 0.482124 0.273766 0.000000
vt 0.014540 0.369962 0.000000
vt 0.221148 0.350867 0.000000
vt 0.384062 0.402602 0.000000
vt 0.487728 0.490953 0.000000
vt 0.300130 0.539652 0.000000
vt 0.489953 0.630043 0.000000
vt 0.331434 0.573897 0.000000
vt 0.018167 0.624803 0.000000
vt 0.024613 0.485844 0.000000
vt 0.166412 0.617970 0.000000
vt 0.123517 0.393811 0.000000
vt 0.178497 0.573180 0.000000
vt 0.255038 0.363136 0.000000
vt 0.210768 0.539850 0.000000
vt 0.255420 0.527244 0.000000
vt 0.905875 0.446824 0.000000
vt 0.960735 0.507146 0.000000
vt 0.820279 0.523140 0.000000
vt 0.568631 0.498794 0.000000
vt 0.625615 0.440594 0.000000
vt 0.692071 0.546456 0.000000
vt 0.682569 0.378107 0.000000
vt 0.708457 0.519893 0.000000
vt 0.762961 0.379868 0.000000
vt 0.734290 0.502373 0.000000
vt 0.852315 0.385386 0.000000
vt 0.764957 0.496531 0.000000
vt 0.795089 0.504705 0.000000
vt 0.868000 0.031355 0.000000
vt 0.909121 0.059376 0.000000
vt 0.839809 0.163466 0.000000
vt 0.955255 0.078031 0.000000
vt 0.853860 0.163172 0.000000
vt 0.684140 0.084483 0.000000
vt 0.729333 0.063653 0.000000
vt 0.782889 0.176660 0.000000
vt 0.769077 0.033707 0.000000
vt 0.789870 0.164465 0.000000
vt 0.818665 0.037842 0.000000
vt 0.809608 0.162570 0.000000
vt 0.821695 0.155394 0.000000
vt 0.638086 0.917328 0.000000
vt 0.668725 0.973955 0.000000
vt 0.562316 0.919284 0.000000
vt 0.676123 0.851978 0.000000
vt 0.736268 0.852424 0.000000
vt 0.634789 0.789447 0.000000
vt 0.664722 0.732835 0.000000
vt 0.560323 0.789837 0.000000
vt 0.529122 0.736754 0.000000
vt 0.523531 0.854750 0.000000
vt 0.463224 0.855321 0.000000
vt 0.532627 0.971356 0.000000
vt 0.900456 0.768986 0.000000
vt 0.941198 0.749499 0.000000
vt 0.901206 0.813102 0.000000
vt 0.866099 0.740961 0.000000
vt 0.869400 0.706560 0.000000
vt 0.827168 0.762500 0.000000
vt 0.786654 0.734035 0.000000
vt 0.821261 0.806332 0.000000
vt 0.783586 0.816673 0.000000
vt 0.859792 0.828225 0.000000
vt 0.856063 0.873135 0.000000
vt 0.929368 0.832929 0.000000
vt 0.807174 0.948687 0.000000
vt 0.793500 0.960388 0.000000
vt 0.804815 0.919079 0.000000
vt 0.836424 0.954338 0.000000
vt 0.841528 0.979434 0.000000
vt 0.860886 0.937492 0.000000
vt 0.877857 0.943484 0.000000
vt 0.851156 0.909335 0.000000
vt 0.870337 0.892366 0.000000
vt 0.824335 0.896575 0.000000
vt 0.821038 0.878881 0.000000
vt 0.780529 0.910952 0.000000
vt 0.496154 0.347793 0.000000
vt 0.341955 0.619081 0.000000
vt 0.835649 0.550303 0.000000
vt 0.865645 0.179115 0.000000
vt 0.429468 0.775014 0.000000
vt 0.260906 0.835559 0.000000
vt 0.267754 0.814227 0.000000
vt 0.297530 0.646155 0.000000
vt 0.253245 0.797115 0.000000
vt 0.116531 0.681408 0.000000
vt 0.231346 0.801849 0.000000
vt 0.070904 0.860099 0.000000
vt 0.223781 0.822970 0.000000
vt 0.191934 0.999221 0.000000
vt 0.238832 0.839568 0.000000
vt 0.369499 0.949390 0.000000
vt 0.799479 0.702695 0.000000
vt 0.790471 0.560786 0.000000
vt 0.839990 0.570319 0.000000
vt 0.821619 0.712548 0.000000
vt 0.884386 0.592037 0.000000
vt 0.704319 0.707824 0.000000
vt 0.611883 0.603760 0.000000
vt 0.650695 0.581088 0.000000
vt 0.727422 0.700494 0.000000
vt 0.700706 0.565220 0.000000
vt 0.751513 0.697789 0.000000
vt 0.744853 0.562075 0.000000
vt 0.775749 0.697794 0.000000
vt 0.511049 0.573309 0.000000
vt 0.555141 0.561570 0.000000
vt 0.506719 0.623546 0.000000
vt 0.837864 0.194085 0.000000
vt 0.820722 0.204046 0.000000
vt 0.835108 0.180306 0.000000
vt 0.807411 0.199543 0.000000
vt 0.807355 0.179718 0.000000
vt 0.817910 0.170443 0.000000
vt 0.683077 0.719492 0.000000
vt 0.598154 0.572034 0.000000
vt 0.597602 0.624504 0.000000
vt 0.554348 0.636740 0.000000
# 130 texture coords

g Tree_001
usemtl Material__25
s off
f -60/-130/-112 -59/-129/-112 -58/-128/-112 
f -59/-129/-111 -57/-127/-111 -56/-126/-111 
f -57/-127/-110 -55/-125/-110 -54/-124/-110 
f -55/-125/-109 -53/-123/-109 -52/-122/-109 
f -53/-123/-108 -51/-121/-108 -50/-120/-108 
f -51/-119/-107 -60/-130/-107 -49/-118/-107 
f -48/-117/-106 -47/-116/-106 -46/-115/-106 
f -47/-116/-105 -45/-114/-105 -44/-113/-105 
f -45/-112/-104 -43/-111/-104 -42/-110/-104 
f -43/-111/-103 -41/-109/-103 -40/-108/-103 
f -41/-109/-102 -39/-107/-102 -38/-106/-102 
f -39/-107/-101 -48/-117/-101 -37/-105/-101 
f -36/-104/-100 -35/-103/-100 -34/-102/-100 
f -35/-101/-99 -33/-100/-99 -32/-99/-99 
f -33/-100/-98 -31/-98/-98 -30/-97/-98 
f -31/-98/-97 -29/-96/-97 -28/-95/-97 
f -29/-96/-96 -27/-94/-96 -26/-93/-96 
f -27/-94/-95 -36/-104/-95 -25/-92/-95 
f -24/-91/-94 -23/-90/-94 -22/-89/-94 
f -23/-90/-93 -21/-88/-93 -20/-87/-93 
f -21/-86/-92 -19/-85/-92 -18/-84/-92 
f -19/-85/-91 -17/-83/-91 -16/-82/-91 
f -17/-83/-90 -15/-81/-90 -14/-80/-90 
f -15/-81/-89 -24/-91/-89 -13/-79/-89 
f -56/-78/-88 -47/-77/-88 -58/-76/-88 
f -54/-75/-87 -45/-74/-87 -56/-78/-87 
f -52/-73/-86 -43/-72/-86 -54/-75/-86 
f -50/-71/-85 -41/-70/-85 -52/-73/-85 
f -49/-69/-84 -39/-68/-84 -50/-71/-84 
f -58/-76/-83 -48/-67/-83 -49/-69/-83 
f -44/-66/-82 -35/-65/-82 -46/-64/-82 
f -42/-63/-81 -33/-62/-81 -44/-66/-81 
f -40/-61/-80 -31/-60/-80 -42/-63/-80 
f -38/-59/-79 -29/-58/-79 -40/-61/-79 
f -37/-57/-78 -27/-56/-78 -38/-59/-78 
f -46/-64/-77 -36/-55/-77 -37/-57/-77 
f -32/-54/-76 -23/-53/-76 -34/-52/-76 
f -30/-51/-75 -21/-50/-75 -32/-54/-75 
f -28/-49/-74 -19/-48/-74 -30/-51/-74 
f -26/-47/-73 -17/-46/-73 -28/-49/-73 
f -25/-45/-72 -15/-44/-72 -26/-47/-72 
f -34/-52/-71 -24/-43/-71 -25/-45/-71 
f -59/-129/-70 -56/-126/-70 -58/-128/-70 
f -57/-127/-69 -54/-124/-69 -56/-126/-69 
f -55/-125/-68 -52/-122/-68 -54/-124/-68 
f -53/-123/-67 -50/-120/-67 -52/-122/-67 
f -51/-121/-66 -49/-42/-66 -50/-120/-66 
f -60/-130/-65 -58/-128/-65 -49/-118/-65 
f -47/-116/-64 -44/-113/-64 -46/-115/-64 
f -45/-114/-63 -42/-41/-63 -44/-113/-63 
f -43/-111/-62 -40/-108/-62 -42/-110/-62 
f -41/-109/-61 -38/-106/-61 -40/-108/-61 
f -39/-107/-60 -37/-105/-60 -38/-106/-60 
f -48/-117/-59 -46/-115/-59 -37/-105/-59 
f -35/-103/-58 -32/-40/-58 -34/-102/-58 
f -33/-100/-57 -30/-97/-57 -32/-99/-57 
f -31/-98/-56 -28/-95/-56 -30/-97/-56 
f -29/-96/-55 -26/-93/-55 -28/-95/-55 
f -27/-94/-54 -25/-92/-54 -26/-93/-54 
f -36/-104/-53 -34/-102/-53 -25/-92/-53 
f -23/-90/-52 -20/-87/-52 -22/-89/-52 
f -21/-88/-51 -18/-39/-51 -20/-87/-51 
f -19/-85/-50 -16/-82/-50 -18/-84/-50 
f -17/-83/-49 -14/-80/-49 -16/-82/-49 
f -15/-81/-48 -13/-79/-48 -14/-80/-48 
f -24/-91/-47 -22/-89/-47 -13/-79/-47 
f -47/-77/-46 -48/-67/-46 -58/-76/-46 
f -45/-74/-45 -47/-77/-45 -56/-78/-45 
f -43/-72/-44 -45/-74/-44 -54/-75/-44 
f -41/-70/-43 -43/-72/-43 -52/-73/-43 
f -39/-68/-42 -41/-70/-42 -50/-71/-42 
f -48/-67/-41 -39/-68/-41 -49/-69/-41 
f -35/-65/-40 -36/-55/-40 -46/-64/-40 
f -33/-62/-39 -35/-65/-39 -44/-66/-39 
f -31/-60/-38 -33/-62/-38 -42/-63/-38 
f -29/-58/-37 -31/-60/-37 -40/-61/-37 
f -27/-56/-36 -29/-58/-36 -38/-59/-36 
f -36/-55/-35 -27/-56/-35 -37/-57/-35 
f -23/-53/-34 -24/-43/-34 -34/-52/-34 
f -21/-50/-33 -23/-53/-33 -32/-54/-33 
f -19/-48/-32 -21/-50/-32 -30/-51/-32 
f -17/-46/-31 -19/-48/-31 -28/-49/-31 
f -15/-44/-30 -17/-46/-30 -26/-47/-30 
f -24/-43/-29 -15/-44/-29 -25/-45/-29 
f -59/-38/-28 -12/-37/-28 -11/-36/-28 
f -57/-35/-27 -11/-36/-27 -10/-34/-27 
f -55/-33/-26 -10/-34/-26 -9/-32/-26 
f -53/-31/-25 -9/-32/-25 -8/-30/-25 
f -51/-29/-24 -8/-30/-24 -7/-28/-24 
f -60/-27/-23 -7/-28/-23 -12/-37/-23 
f -59/-38/-22 -60/-27/-22 -12/-37/-22 
f -57/-35/-21 -59/-38/-21 -11/-36/-21 
f -55/-33/-20 -57/-35/-20 -10/-34/-20 
f -53/-31/-19 -55/-33/-19 -9/-32/-19 
f -51/-29/-18 -53/-31/-18 -8/-30/-18 
f -60/-27/-17 -51/-29/-17 -7/-28/-17 
f -11/-26/-16 -6/-25/-16 -5/-24/-16 
f -10/-23/-15 -5/-24/-15 -4/-22/-15 
f -9/-21/-14 -4/-20/-14 -3/-19/-14 
f -8/-18/-13 -3/-19/-13 -2/-17/-13 
f -7/-16/-12 -2/-17/-12 -1/-15/-12 
f -12/-14/-11 -1/-15/-11 -6/-25/-11 
f -6/-13/-10 -1/-12/-10 -5/-11/-10 
f -20/-10/-9 -18/-9/-9 -22/-8/-9 
f -18/-9/-8 -16/-7/-8 -14/-6/-8 
f -14/-6/-7 -13/-5/-7 -22/-8/-7 
f -18/-9/-6 -14/-6/-6 -22/-8/-6 
f -11/-26/-5 -12/-14/-5 -6/-25/-5 
f -10/-23/-4 -11/-26/-4 -5/-24/-4 
f -9/-21/-3 -10/-4/-3 -4/-20/-3 
f -8/-18/-13 -9/-21/-13 -3/-19/-13 
f -7/-16/-2 -8/-18/-2 -2/-17/-2 
f -12/-14/-1 -7/-16/-1 -1/-15/-1 
f -1/-12/-10 -2/-3/-10 -3/-2/-10 
f -3/-2/-10 -4/-1/-10 -5/-11/-10 
f -1/-12/-10 -3/-2/-10 -5/-11/-10 
# 0 polygons - 116 triangles

